<svg id="Camada_1" data-name="Camada 1" xmlns="http://www.w3.org/2000/svg" viewBox="0 0 1716.52 781.64"><defs><style>.cls-1{fill:#242752;}.cls-2{fill:#956bac;}.cls-3{fill:#733d90;}.cls-4,.cls-7,.cls-8{fill:none;stroke-miterlimit:10;stroke-width:21px;}.cls-4{stroke:#2c2665;}.cls-5{fill:#fff;}.cls-6{fill:#2c2665;}.cls-7{stroke:#733d90;}.cls-8{stroke:#956bac;}</style></defs><path class="cls-1" d="M800.68,472.75V216.15H731.36v-46H846.67V472.75A151.48,151.48,0,0,1,805,578.06a173,173,0,0,1-46,34.32,159.73,159.73,0,0,1-56.31,17v-46a122.54,122.54,0,0,0,38.65-13,111.54,111.54,0,0,0,31-24.32A115.46,115.46,0,0,0,793,512.41,105.21,105.21,0,0,0,800.68,472.75Z"/><rect class="cls-2" x="905.32" y="169.49" width="45.99" height="207.28"/><path class="cls-3" d="M905.32,422.76h46v143.3a16.2,16.2,0,0,0,5.33,12.33,17.88,17.88,0,0,0,12.66,5h151.3v46h-162A51.92,51.92,0,0,1,921,614.05a50.28,50.28,0,0,1-15.66-37.33Z"/><path class="cls-1" d="M1145.93,382.1a229.81,229.81,0,0,1,23.33-86.31,242.68,242.68,0,0,1,51.66-70,237.06,237.06,0,0,1,73.31-46.65,231.48,231.48,0,0,1,88.31-17q50,0,93,18.66a243,243,0,0,1,75.65,51.32l-32.66,32.66a191.69,191.69,0,0,0-206.28-43.32,191.67,191.67,0,0,0-58.66,37,198.3,198.3,0,0,0-42,55.32,183.86,183.86,0,0,0-19.66,68.31Zm46,36a182.87,182.87,0,0,0,19.66,67.65,198,198,0,0,0,42,55.32,192,192,0,0,0,58.66,37,191.54,191.54,0,0,0,145.29-2,197.45,197.45,0,0,0,61-41.33l32.66,32.66a242.65,242.65,0,0,1-75.65,51.32q-43,18.66-93,18.67a231.48,231.48,0,0,1-88.31-17,237.08,237.08,0,0,1-73.31-46.66,243.85,243.85,0,0,1-51.66-69.64,227,227,0,0,1-23.33-86Z"/><path class="cls-3" d="M1651.81,630.05h-56.66v-54h56.66Z"/><path class="cls-4" d="M287,385.47,84.73,260.15q0,152.07,0,304.14l204.8,129.39"/><path class="cls-3" d="M221.47,189a18.09,18.09,0,0,0,12.38-5.12,13.3,13.3,0,0,0,3.62-5.63,13.28,13.28,0,0,0,1.5-6.75c-.2-4.52-1.69-9.22-5.12-12.37A18.21,18.21,0,0,0,221.47,154a18,18,0,0,0-12.37,5.13,13.09,13.09,0,0,0-3.62,5.63,13.25,13.25,0,0,0-1.51,6.74c.21,4.53,1.69,9.22,5.13,12.38A18.18,18.18,0,0,0,221.47,189Z"/><path class="cls-5" d="M339.57,399.48a1.88,1.88,0,0,0,0-3.75,1.88,1.88,0,0,0,0,3.75Z"/><path class="cls-6" d="M289.22,403.93a18,18,0,0,0,12.37-5.12,19.53,19.53,0,0,0,5.13-12.38c-.2-4.52-1.69-9.22-5.13-12.37a17.48,17.48,0,0,0-24.74,0,13,13,0,0,0-3.62,5.63,13.15,13.15,0,0,0-1.51,6.74c.2,4.53,1.69,9.22,5.13,12.38a18.18,18.18,0,0,0,12.37,5.12Z"/><path class="cls-6" d="M294.06,713.21a18.07,18.07,0,0,0,12.38-5.12,19.39,19.39,0,0,0,5.12-12.38c-.2-4.52-1.69-9.22-5.12-12.37a17.49,17.49,0,0,0-24.75,0,13.09,13.09,0,0,0-3.62,5.63,13.25,13.25,0,0,0-1.51,6.74c.21,4.53,1.69,9.22,5.13,12.38a18.18,18.18,0,0,0,12.37,5.12Z"/><path class="cls-7" d="M220.61,172.27l118.13-68.45L595.42,264.63l-203,118.29"/><path class="cls-8" d="M339.57,402.26l.7,293.45,178.49-102.9"/><path class="cls-3" d="M388.29,402.26a18.09,18.09,0,0,0,12.38-5.12,19.59,19.59,0,0,0,5.12-12.38c-.2-4.52-1.69-9.22-5.12-12.37a17.49,17.49,0,0,0-24.75,0,19.47,19.47,0,0,0-5.13,12.37c.2,4.53,1.69,9.22,5.13,12.38a18.18,18.18,0,0,0,12.37,5.12Z"/><path class="cls-2" d="M516.18,610.76a18,18,0,0,0,12.37-5.12,19.53,19.53,0,0,0,5.13-12.38c-.2-4.52-1.69-9.22-5.13-12.37a17.49,17.49,0,0,0-24.75,0,19.53,19.53,0,0,0-5.12,12.37c.2,4.53,1.69,9.22,5.12,12.38a18.22,18.22,0,0,0,12.38,5.12Z"/><path class="cls-2" d="M339.57,426.22a18,18,0,0,0,12.37-5.13,13,13,0,0,0,3.62-5.63,13.15,13.15,0,0,0,1.51-6.74c-.2-4.53-1.69-9.22-5.13-12.38a17.52,17.52,0,0,0-24.75,0,19.59,19.59,0,0,0-5.12,12.38c.2,4.52,1.69,9.22,5.12,12.37a18.23,18.23,0,0,0,12.38,5.13Z"/></svg>